# xmcd
#
# Track frame offsets: 
#        182
#        24545
#        61400
#        82300
#        90312
#        97815
#        110717
#        130750
#        150772
#        160600
#        172377
#        189120
#        208467
#        218575
#        235825
#        247222
#        269422
#        283740
#        298147
#        315025
#
# Disc length: 4464 seconds
#
# Revision: 7
# Processed by: cddbd v1.5.2PL0 Copyright (c) Steve Scherf et al.
# Submitted via: ExactAudioCopyFreeDBPlugin 1.0
#
DISCID=1a116e14
DTITLE=Narciso Yepes  - Villa-Lobos
DYEAR=1976
DGENRE=Classical
TTITLE0=Narciso Yepes (guitar) - London SO - Garcia-Navarro - Guitar C
TTITLE0=oncerto: 1. Allegro preciso
TTITLE1=Narciso Yepes (guitar) - London SO - Garcia-Navarro - Guitar C
TTITLE1=oncerto: 2. Andantino e andante
TTITLE2=Narciso Yepes (guitar) - London SO - Garcia-Navarro - Guitar C
TTITLE2=oncerto: 3. Allegretto non troppo
TTITLE3=Etude No.1 in E minor: Allegro non troppo
TTITLE4=Etude No.2 in A major: Allegro
TTITLE5=Etude No.3 in D major: Allegro moderato
TTITLE6=Etude No.4 in G major: Un peu modere - Grandioso
TTITLE7=Etude No.5 in C major: Andantino - Poco meno
TTITLE8=Etude No.6 in E minor: Poco Allegro
TTITLE9=Etude No.7 in E major: Tres anime - Moins
TTITLE10=Etude No.8 in C sharp minor: Modere
TTITLE11=Etude No.9 in F sharp minor: Tres peu anime
TTITLE12=Etude No.10 in B minor: Tres anime - Un peu anime - Vif
TTITLE13=Etude No.11 in E minor: Lent - Anime - Poco meno - Anime - Le
TTITLE13=nt
TTITLE14=Etude No.12 in A minor: Anime - Piu mosso - a tempo primo - U
TTITLE14=n peu plus anime
TTITLE15=Prelude No.1 in E minor: Andantino espressivo - Piu mosso - P
TTITLE15=rimo tempo
TTITLE16=Prelude No.2 in E major: Andantino - Piu mosso - Tempo I
TTITLE17=Prelude No.3 in A minor: Andante - Molto adagio e dolorido
TTITLE18=Prelude No.4 in E minor: Lento - Animato - Moderato - Lento
TTITLE19=Prelude No.5 in D major: Poco animato - Meno - Piu mosso - A 
TTITLE19=tempo
EXTD=Narcisso Yepes guitar\nLondon symphony orchestra\nGarcia Navarro 
EXTD=YEAR: 1976
EXTT0=
EXTT1=
EXTT2=
EXTT3=
EXTT4=
EXTT5=
EXTT6=
EXTT7=
EXTT8=
EXTT9=
EXTT10=
EXTT11=
EXTT12=
EXTT13=
EXTT14=
EXTT15=
EXTT16=
EXTT17=
EXTT18=
EXTT19=
PLAYORDER=
